# xmcd
#
# Track frame offsets: 
#        150
#        9810
#        18982
#        31235
#        42120
#        52175
#        62167
#        73327
#        83762
#        94587
#        104905
#        114412
#        128642
#        138985
#        148300
#        159987
#        172782
#        184747
#        196012
#        205447
#        216045
#        225272
#        239945
#        248872
#        261620
#        277015
#        289185
#        301807
#        313902
#        329122
#
# Disc length: 4555 seconds
#
# Revision: 5
# Processed by: cddbd v1.5.2PL0 Copyright (c) Steve Scherf et al.
# Submitted via: ExactAudioCopyFreeDBPlugin 1.0
#
DISCID=c311c91e
DTITLE=Various Artist - The Jamie-Guyden Story
DYEAR=1995
DGENRE=Rhythm and Blues
TTITLE0=Ray Sharpe - Linda Lu
TTITLE1=Duane Eddy - Because They're Young
TTITLE2=Maureen Gray - Dancing the Strand
TTITLE3=Neil Sedaka - Ring A Rockin'
TTITLE4=The Inspirations - Dry Your Eyes
TTITLE5=Lee Hazlewood - Words Mean Nothing
TTITLE6=Bobby Gregg and Friends - The Jam (part 1)
TTITLE7=Donnie Owens - Need You
TTITLE8=The Sharps - Have Love, Will Travel
TTITLE9=Billy and The Essentials - The Dance is Over
TTITLE10=The Jordan Brothers - Never, Never
TTITLE11=The Heartbeats - Darling, I Want to Get Married
TTITLE12=Craig Alden - Come on In
TTITLE13=Duane Eddy - Forty Miles of Bad Road
TTITLE14=Sanford Clark - Son of a Gun
TTITLE15=The Pentagons - I'm in Love
TTITLE16=Barbara Lynn - (I Cried At) Laura's Wedding
TTITLE17=Mitchell Torok - Caribbean
TTITLE18=Ernie Fields - Strollin' After School
TTITLE19=Harold Melvin and The Blue Notes - Get Out
TTITLE20=The Sherrys - Slop Time
TTITLE21=Mercy - Love (Can Make You Happy)
TTITLE22=Bobby Bond - Living Doll
TTITLE23=Barbara Mason - Oh How It Hurts
TTITLE24=Geater Davis - For Your Precious Love
TTITLE25=The Fantastic Johnny C - Boogaloo Down Broadway
TTITLE26=Della Humphrey - Don't Make the Good Girls Go Bad
TTITLE27=Honey and The Bees - Love Addict
TTITLE28=Brenda and The Tabulations - Right on the Tip of My Tongue
TTITLE29=The Temptones - Goodbye
EXTD=
EXTT0=
EXTT1=
EXTT2=
EXTT3=
EXTT4=
EXTT5=
EXTT6=
EXTT7=
EXTT8=
EXTT9=
EXTT10=
EXTT11=
EXTT12=
EXTT13=
EXTT14=
EXTT15=
EXTT16=
EXTT17=
EXTT18=
EXTT19=
EXTT20=
EXTT21=
EXTT22=
EXTT23=
EXTT24=
EXTT25=
EXTT26=
EXTT27=
EXTT28=
EXTT29=
PLAYORDER=
